<svg width="46" height="18" viewBox="0 0 68 24" fill="none" xmlns="http://www.w3.org/2000/svg">
<path d="M20.0692 4.14591C19.154 2.88231 17.9773 1.87474 16.5555 1.12319C15.1255 0.379904 13.4503 0 11.53 0C9.81399 0 8.25323 0.305574 6.83139 0.924982C5.41771 1.54439 4.20833 2.38678 3.18689 3.46868C2.17362 4.54232 1.38099 5.81418 0.833495 7.28424C0.277832 8.7543 0 10.3482 0 12.0496C0 13.8087 0.269661 15.4357 0.808981 16.8975C1.3483 18.3675 2.10825 19.6311 3.10518 20.6965C4.09393 21.7536 5.30331 22.5712 6.72516 23.1411C8.147 23.7192 9.75679 24 11.53 24C14.0959 24 16.2777 23.4136 18.0836 22.2326C19.8813 21.0599 21.2214 19.1025 22.0958 16.3689H16.6372C16.4329 17.0791 15.8773 17.7398 14.9784 18.3758C14.0795 19.0034 13.0009 19.3255 11.7425 19.3255C9.99376 19.3255 8.65363 18.8713 7.73025 17.9546C6.7987 17.0461 6.29207 15.576 6.20218 13.5444H22.488C22.6024 11.7853 22.4635 10.084 22.0549 8.4735C21.6463 6.85478 20.9844 5.4095 20.0692 4.14591ZM6.20218 9.57192C6.2267 9.12595 6.32475 8.62216 6.48818 8.06882C6.65161 7.50723 6.92944 6.97867 7.32167 6.47488C7.71391 5.97935 8.23688 5.55816 8.8906 5.21955C9.54432 4.88094 10.3697 4.71576 11.3584 4.71576C12.8701 4.71576 13.9978 5.1287 14.7414 5.95458C15.485 6.78045 15.9998 7.98623 16.294 9.58018H6.20218V9.57192Z" fill="white"/>
<path d="M46.5007 2.646C45.8734 1.81754 45.0202 1.17506 43.9328 0.701657C42.8455 0.236705 41.4486 0 39.7507 0C38.4124 0 37.0992 0.312788 35.8194 0.929907C34.5397 1.54703 33.4941 2.53611 32.6911 3.8887H32.5573V0.634026H26.5266V23.9831H32.8668V11.7506C32.8668 9.37513 33.2599 7.65904 34.0294 6.62769C34.8073 5.58788 36.0536 5.07221 37.785 5.07221C39.3074 5.07221 40.3613 5.54562 40.9551 6.50088C41.549 7.44769 41.8501 8.88482 41.8501 10.8123V24H48.1987V9.62874C48.1987 8.19162 48.0732 6.87284 47.8223 5.68087C47.5713 4.48891 47.128 3.47446 46.5007 2.646Z" fill="white"/>
<path d="M57.8458 0H52.1987V24H57.8458V0Z" fill="white"/>
<path d="M67.4957 0H61.8457V24H67.4957V0Z" fill="white"/>
</svg>
